<svg version="1.1" id="Layer_1" xmlns="http://www.w3.org/2000/svg" xmlns:xlink="http://www.w3.org/1999/xlink" x="0px" y="0px"
	 width="100%" viewBox="0 0 510 276" enable-background="new 0 0 510 276" xml:space="preserve">
<path fill="#FEFFFF" opacity="1.000000" stroke="none" 
	d="
M36.000000,1.000000 
	C194.288162,1.000000 352.576324,1.000000 510.932251,1.000000 
	C510.932251,92.928528 510.932251,184.857117 510.932251,276.892853 
	C341.119995,276.892853 171.239899,276.892853 1.000000,276.892853 
	C1.000000,192.644363 1.000000,108.288223 1.348306,23.499702 
	C4.808766,27.062733 7.959736,31.028671 11.021982,35.061974 
	C13.987125,38.967377 14.858985,38.127476 18.387871,34.895382 
	C24.679035,29.133324 31.943062,24.432632 38.822643,19.318209 
	C39.011810,19.177578 39.460037,19.436167 39.781223,19.414803 
	C45.184162,19.055428 45.881615,17.683558 43.151829,13.238373 
	C40.679836,9.212986 38.377270,5.083556 36.000000,1.000000 
M451.739075,44.402164 
	C449.712158,41.403091 447.910309,38.207764 445.549133,35.500168 
	C444.585358,34.394978 442.409637,34.346626 440.785309,33.817467 
	C440.515686,35.686104 439.604309,37.767620 440.135986,39.370434 
	C440.828033,41.456619 442.665771,43.162739 443.081635,45.167927 
	C439.146851,45.183510 435.193848,45.439198 431.282745,45.142525 
	C427.842834,44.881599 425.623840,46.043026 423.617432,49.039799 
	C420.459290,47.315533 418.177338,49.302635 416.677216,51.427162 
	C416.133270,52.197567 417.795990,54.601791 418.578918,56.198204 
	C418.918365,56.890369 419.579071,57.424988 419.997406,58.730183 
	C418.963287,60.816525 417.929138,62.902863 416.179779,64.910339 
	C415.416382,64.587990 414.604706,64.347580 413.896881,63.930870 
	C404.979370,58.680992 397.933777,62.279018 391.452087,68.153076 
	C385.343719,73.688843 384.176544,81.178017 388.691528,89.023895 
	C391.437378,93.795486 395.568909,97.769676 398.988678,102.792900 
	C397.964081,104.859673 396.939484,106.926445 395.055786,109.000992 
	C392.807373,109.568184 390.558960,110.135376 388.310547,110.702568 
	C389.062622,113.204796 389.807404,115.709282 390.576202,118.206352 
	C390.670532,118.512642 390.893494,118.779297 390.944977,119.773926 
	C382.897583,136.747192 374.818207,153.705475 366.858429,170.719727 
	C366.158173,172.216614 365.477112,174.435516 366.075104,175.718948 
	C374.001892,192.731415 382.159393,209.636383 390.615723,227.313324 
	C419.620667,166.403656 448.303680,106.170067 477.414429,45.038227 
	C468.230713,45.038227 460.117798,45.038227 451.739075,44.402164 
M331.406677,119.984619 
	C328.939301,119.322746 326.471893,118.660881 323.567810,117.448380 
	C312.834808,94.951530 302.027069,72.489693 291.452881,49.918449 
	C289.943634,46.696819 288.163483,45.638313 284.695435,45.712452 
	C274.216736,45.936466 263.730194,45.793350 253.246689,45.793343 
	C248.836975,45.793335 244.427277,45.793343 239.371582,45.793343 
	C240.200592,47.973629 240.627045,49.365971 241.241882,50.669453 
	C246.275253,61.340218 251.366898,71.983521 256.396576,82.656029 
	C265.673676,102.341057 274.920654,122.040291 283.847931,142.375732 
	C280.562256,145.593323 276.729370,148.423615 274.115540,152.116684 
	C269.896820,158.077240 271.290802,167.926712 276.497437,174.860382 
	C282.363495,182.672226 289.999969,185.733536 298.027588,183.469452 
	C299.774994,182.976639 301.503113,182.415482 303.735657,182.358810 
	C310.790649,197.179092 317.845673,211.999374 325.262604,227.579895 
	C331.799652,213.748779 337.869659,200.813400 344.019623,187.916153 
	C352.605927,169.909561 361.251953,151.931458 370.583008,133.915604 
	C378.485229,129.035660 381.511230,122.082359 378.997437,114.110634 
	C381.382385,110.564247 381.017578,107.229622 379.034241,103.459717 
	C375.790070,97.293343 373.094391,90.838135 370.175323,84.501053 
	C366.940979,77.479469 363.715576,70.453735 360.033295,62.444473 
	C356.048340,70.832733 352.562775,78.289345 348.974213,85.696045 
	C343.410553,97.179268 337.776611,108.628433 331.406677,119.984619 
M238.019623,224.951706 
	C242.299423,218.457947 242.077927,210.698242 237.413406,203.713333 
	C229.866577,192.412216 222.760712,190.079483 210.257935,194.701157 
	C209.211487,195.087997 207.978043,194.968979 206.249863,194.775391 
	C190.728775,179.086655 175.207687,163.397919 159.483139,147.503525 
	C161.411713,146.178909 163.034149,145.029114 164.691299,143.931747 
	C186.204453,129.685822 207.681870,115.385086 229.287872,101.281319 
	C232.169647,99.400177 233.177628,97.413086 233.133499,94.046089 
	C232.952286,80.223091 233.057800,66.396332 233.057831,52.570961 
	C233.057831,50.499100 233.057846,48.427238 233.057846,45.443878 
	C197.115906,69.184532 162.053940,92.343933 126.897423,115.565796 
	C102.739510,92.614647 78.983078,70.044930 55.226650,47.475204 
	C54.817219,47.795837 54.407791,48.116467 53.998363,48.437096 
	C53.998363,65.731682 54.097134,83.027290 53.918056,100.320023 
	C53.880608,103.936539 54.900879,106.464005 57.485950,109.034004 
	C88.553230,139.920166 119.508293,170.919266 150.471649,201.909851 
	C157.058014,208.502029 163.559982,215.178574 169.969086,222.526672 
	C169.321503,224.950699 164.181473,225.419556 166.873932,229.240982 
	C174.091751,239.485260 181.410156,249.658646 189.064194,260.386627 
	C196.016449,255.577606 202.736313,251.086273 209.230453,246.289368 
	C210.369858,245.447723 210.562607,243.324448 211.192551,241.793060 
	C209.470901,241.694168 207.385376,240.925735 206.097763,241.625504 
	C202.630753,243.509689 199.236008,245.722565 196.310364,248.357635 
	C192.653519,251.651276 190.236633,251.006271 187.683121,247.166367 
	C183.926468,241.517136 179.867020,236.069794 176.071686,230.445297 
	C175.394318,229.441483 175.372086,227.995590 175.948807,227.013290 
	C186.276733,227.196121 196.604675,227.378967 207.114334,228.149918 
	C208.002197,228.862686 208.919830,229.541672 209.773193,230.293579 
	C216.894379,236.567917 229.241333,235.229828 235.748138,227.339111 
	C236.247711,226.663315 236.747299,225.987534 238.019623,224.951706 
M53.998581,140.514221 
	C53.998581,169.427216 53.998581,198.340210 53.998581,227.395630 
	C68.986038,227.395630 83.357368,227.395630 97.840813,227.395630 
	C97.933220,225.864258 98.062569,224.711716 98.063354,223.559082 
	C98.075005,206.409195 98.147438,189.258408 97.945381,172.110886 
	C97.925652,170.436722 96.497963,168.478531 95.202736,167.166672 
	C82.802795,154.607620 70.296989,142.152985 57.798084,129.691925 
	C56.840748,128.737488 55.704842,127.962173 53.998581,126.570839 
	C53.998581,131.570267 53.998581,135.545670 53.998581,140.514221 
M271.468018,178.125565 
	C270.599976,177.999161 269.469086,177.458389 268.907349,177.814774 
	C265.688873,179.856705 262.599670,182.103271 259.477997,184.296600 
	C255.813278,186.871490 256.721100,188.936203 260.054596,190.964584 
	C261.785309,189.773575 263.173431,188.488876 264.811554,187.791122 
	C266.221924,187.190369 268.957886,186.601425 269.302826,187.147446 
	C270.647186,189.275574 272.707092,192.618927 271.903961,194.130157 
	C269.281311,199.065063 264.798889,202.496338 258.921356,202.945297 
	C250.986252,203.551453 241.335052,193.238602 242.117477,185.297379 
	C243.016098,176.176895 250.845993,171.162491 259.562012,174.313354 
	C263.415558,175.706406 264.451813,173.184662 266.404449,169.807755 
	C262.456635,168.471954 258.922821,166.230240 255.432617,166.296219 
	C245.900894,166.476410 236.687500,175.668198 236.008179,184.641769 
	C235.266434,194.439865 243.007935,205.451767 251.745941,208.198761 
	C264.353394,212.162201 274.877075,202.547729 279.342529,193.914978 
	C280.065369,192.517609 279.628113,189.912170 278.763977,188.424622 
	C276.776703,185.003616 274.196198,181.927200 271.468018,178.125565 
z"/>
<path fill="#F0F1F1" opacity="1.000000" stroke="none" 
	d="
M35.536816,1.000000 
	C38.377270,5.083556 40.679836,9.212986 43.151829,13.238373 
	C45.881615,17.683558 45.184162,19.055428 39.781223,19.414803 
	C39.460037,19.436167 39.011810,19.177578 38.822643,19.318209 
	C31.943062,24.432632 24.679035,29.133324 18.387871,34.895382 
	C14.858985,38.127476 13.987125,38.967377 11.021982,35.061974 
	C7.959736,31.028671 4.808766,27.062733 1.348306,23.033661 
	C1.000000,21.285643 1.000000,19.571283 1.355820,17.391907 
	C4.759391,15.065982 7.807140,13.205078 10.854890,11.344174 
	C10.617119,10.811889 10.379347,10.279602 10.141576,9.747316 
	C7.094384,10.164878 4.047192,10.582439 1.000000,11.000000 
	C1.000000,8.500000 1.340318,5.940407 0.915570,3.514785 
	C0.359770,0.340760 2.345620,1.048077 4.461700,1.372519 
	C3.618646,4.598624 5.076769,4.931711 7.554774,5.080784 
	C10.165380,5.237834 12.737190,6.039785 15.325951,6.559969 
	C15.585058,7.208452 15.844165,7.856936 16.103271,8.505420 
	C18.402180,6.003613 20.701090,3.501806 23.000000,0.999999 
	C27.024544,1.000000 31.049088,1.000000 35.536816,1.000000 
M28.312481,9.846315 
	C28.972837,8.562573 29.633192,7.278831 30.293549,5.995090 
	C29.025850,6.240761 27.534143,6.140088 26.528316,6.790643 
	C21.546238,10.012985 16.616493,13.330694 11.842850,16.851452 
	C10.524400,17.823862 9.805504,19.609184 8.811516,21.021519 
	C9.308815,21.516600 9.806114,22.011683 10.303413,22.506763 
	C16.092289,18.393087 21.881163,14.279410 28.312481,9.846315 
M23.308336,19.845367 
	C20.260780,22.570358 15.232763,23.304800 14.714880,28.739861 
	C21.783392,24.804262 28.345602,20.235126 34.809299,15.530649 
	C35.314095,15.163247 35.130291,13.849752 35.266525,12.975971 
	C34.399139,12.952332 33.285793,12.568859 32.705635,12.965422 
	C29.700983,15.019229 26.832586,17.272366 23.308336,19.845367 
z"/>
<path fill="#FBFCFC" opacity="1.000000" stroke="none" 
	d="
M22.532059,0.999999 
	C20.701090,3.501806 18.402180,6.003613 16.103271,8.505420 
	C15.844165,7.856936 15.585058,7.208452 15.325951,6.559969 
	C12.737190,6.039785 10.165380,5.237834 7.554774,5.080784 
	C5.076769,4.931711 3.618646,4.598624 4.961699,1.372519 
	C10.688041,1.000000 16.376081,1.000000 22.532059,0.999999 
z"/>
<path fill="#FBFCFC" opacity="1.000000" stroke="none" 
	d="
M1.000000,11.428463 
	C4.047192,10.582439 7.094384,10.164878 10.141576,9.747316 
	C10.379347,10.279602 10.617119,10.811889 10.854890,11.344174 
	C7.807140,13.205078 4.759391,15.065982 1.355820,16.963444 
	C1.000000,15.285642 1.000000,13.571283 1.000000,11.428463 
z"/>
<path fill="#5184C1" opacity="1.000000" stroke="none" 
	d="
M170.100830,221.816238 
	C163.559982,215.178574 157.058014,208.502029 150.471649,201.909851 
	C119.508293,170.919266 88.553230,139.920166 57.485950,109.034004 
	C54.900879,106.464005 53.880608,103.936539 53.918056,100.320023 
	C54.097134,83.027290 53.998363,65.731682 53.998363,48.437096 
	C54.407791,48.116467 54.817219,47.795837 55.226650,47.475204 
	C78.983078,70.044930 102.739510,92.614647 126.897423,115.565796 
	C162.053940,92.343933 197.115906,69.184532 233.057846,45.443878 
	C233.057846,48.427238 233.057831,50.499100 233.057831,52.570961 
	C233.057800,66.396332 232.952286,80.223091 233.133499,94.046089 
	C233.177628,97.413086 232.169647,99.400177 229.287872,101.281319 
	C207.681870,115.385086 186.204453,129.685822 164.691299,143.931747 
	C163.034149,145.029114 161.411713,146.178909 159.483139,147.503525 
	C175.207687,163.397919 190.728775,179.086655 206.685760,195.229980 
	C209.053604,197.506058 210.985535,199.327560 213.070572,201.440674 
	C219.782532,208.174957 226.341370,214.617615 233.039612,221.347992 
	C234.534958,222.861069 235.890915,224.086411 237.246872,225.311737 
	C236.747299,225.987534 236.247711,226.663315 234.951538,227.303467 
	C225.080841,227.365814 216.006714,227.463806 206.932602,227.561798 
	C196.604675,227.378967 186.276733,227.196121 175.370697,226.595886 
	C173.228668,224.724396 171.664749,223.270325 170.100830,221.816238 
z"/>
<path fill="#5184C1" opacity="1.000000" stroke="none" 
	d="
M284.180176,141.733612 
	C274.920654,122.040291 265.673676,102.341057 256.396576,82.656029 
	C251.366898,71.983521 246.275253,61.340218 241.241882,50.669453 
	C240.627045,49.365971 240.200592,47.973629 239.371582,45.793343 
	C244.427277,45.793343 248.836975,45.793335 253.246689,45.793343 
	C263.730194,45.793350 274.216736,45.936466 284.695435,45.712452 
	C288.163483,45.638313 289.943634,46.696819 291.452881,49.918449 
	C302.027069,72.489693 312.834808,94.951530 323.815460,118.083023 
	C325.477234,121.722504 326.891357,124.727348 328.871002,128.933884 
	C330.275421,125.172676 331.223938,122.632355 332.172485,120.092041 
	C337.776611,108.628433 343.410553,97.179268 348.974213,85.696045 
	C352.562775,78.289345 356.048340,70.832733 360.033295,62.444473 
	C363.715576,70.453735 366.940979,77.479469 370.175323,84.501053 
	C373.094391,90.838135 375.790070,97.293343 379.034241,103.459717 
	C381.017578,107.229622 381.382385,110.564247 378.681030,114.706360 
	C375.533875,121.515106 372.703156,127.728142 369.872437,133.941177 
	C361.251953,151.931458 352.605927,169.909561 344.019623,187.916153 
	C337.869659,200.813400 331.799652,213.748779 325.262604,227.579895 
	C317.845673,211.999374 310.790649,197.179092 303.416931,181.780029 
	C302.159943,179.344803 301.221680,177.488342 300.212189,175.285828 
	C296.019165,166.301163 291.897400,157.662537 287.710693,148.692383 
	C286.490540,146.151764 285.335358,143.942688 284.180176,141.733612 
z"/>
<path fill="#EAC452" opacity="1.000000" stroke="none" 
	d="
M416.894989,64.989197 
	C417.929138,62.902863 418.963287,60.816525 420.307861,58.163322 
	C421.868561,54.794098 423.118805,51.991737 424.369080,49.189377 
	C425.623840,46.043026 427.842834,44.881599 431.282745,45.142525 
	C435.193848,45.439198 439.146851,45.183510 443.986206,45.160866 
	C447.262146,45.115280 449.633514,45.076752 452.004883,45.038227 
	C460.117798,45.038227 468.230713,45.038227 477.414429,45.038227 
	C448.303680,106.170067 419.620667,166.403656 390.615723,227.313324 
	C382.159393,209.636383 374.001892,192.731415 366.075104,175.718948 
	C365.477112,174.435516 366.158173,172.216614 366.858429,170.719727 
	C374.818207,153.705475 382.897583,136.747192 391.258606,119.194199 
	C393.019745,115.407379 394.467316,112.200294 395.914856,108.993210 
	C396.939484,106.926445 397.964081,104.859673 399.287048,102.226364 
	C400.629211,99.430672 401.673004,97.201515 402.909241,94.661613 
	C406.893646,86.268105 410.685547,78.185341 414.677612,69.859154 
	C415.550171,68.073547 416.222595,66.531372 416.894989,64.989197 
z"/>
<path fill="#EAC452" opacity="1.000000" stroke="none" 
	d="
M53.998581,140.017639 
	C53.998581,135.545670 53.998581,131.570267 53.998581,126.570839 
	C55.704842,127.962173 56.840748,128.737488 57.798084,129.691925 
	C70.296989,142.152985 82.802795,154.607620 95.202736,167.166672 
	C96.497963,168.478531 97.925652,170.436722 97.945381,172.110886 
	C98.147438,189.258408 98.075005,206.409195 98.063354,223.559082 
	C98.062569,224.711716 97.933220,225.864258 97.840813,227.395630 
	C83.357368,227.395630 68.986038,227.395630 53.998581,227.395630 
	C53.998581,198.340210 53.998581,169.427216 53.998581,140.017639 
z"/>
<path fill="#F0F1F1" opacity="1.000000" stroke="none" 
	d="
M271.662231,178.418243 
	C274.196198,181.927200 276.776703,185.003616 278.763977,188.424622 
	C279.628113,189.912170 280.065369,192.517609 279.342529,193.914978 
	C274.877075,202.547729 264.353394,212.162201 251.745941,208.198761 
	C243.007935,205.451767 235.266434,194.439865 236.008179,184.641769 
	C236.687500,175.668198 245.900894,166.476410 255.432617,166.296219 
	C258.922821,166.230240 262.456635,168.471954 266.404449,169.807755 
	C264.451813,173.184662 263.415558,175.706406 259.562012,174.313354 
	C250.845993,171.162491 243.016098,176.176895 242.117477,185.297379 
	C241.335052,193.238602 250.986252,203.551453 258.921356,202.945297 
	C264.798889,202.496338 269.281311,199.065063 271.903961,194.130157 
	C272.707092,192.618927 270.647186,189.275574 269.302826,187.147446 
	C268.957886,186.601425 266.221924,187.190369 264.811554,187.791122 
	C263.173431,188.488876 261.785309,189.773575 260.054596,190.964584 
	C256.721100,188.936203 255.813278,186.871490 259.477997,184.296600 
	C262.599670,182.103271 265.688873,179.856705 268.907349,177.814774 
	C269.469086,177.458389 270.599976,177.999161 271.662231,178.418243 
z"/>
<path fill="#EAEDF0" opacity="1.000000" stroke="none" 
	d="
M170.034958,222.171448 
	C171.664749,223.270325 173.228668,224.724396 174.919983,226.466156 
	C175.372086,227.995590 175.394318,229.441483 176.071686,230.445297 
	C179.867020,236.069794 183.926468,241.517136 187.683121,247.166367 
	C190.236633,251.006271 192.653519,251.651276 196.310364,248.357635 
	C199.236008,245.722565 202.630753,243.509689 206.097763,241.625504 
	C207.385376,240.925735 209.470901,241.694168 211.192551,241.793060 
	C210.562607,243.324448 210.369858,245.447723 209.230453,246.289368 
	C202.736313,251.086273 196.016449,255.577606 189.064194,260.386627 
	C181.410156,249.658646 174.091751,239.485260 166.873932,229.240982 
	C164.181473,225.419556 169.321503,224.950699 170.034958,222.171448 
z"/>
<path fill="#F0F1F0" opacity="1.000000" stroke="none" 
	d="
M402.716797,94.972359 
	C401.673004,97.201515 400.629211,99.430672 399.331726,101.880943 
	C395.568909,97.769676 391.437378,93.795486 388.691528,89.023895 
	C384.176544,81.178017 385.343719,73.688843 391.452087,68.153076 
	C397.933777,62.279018 404.979370,58.680992 413.896881,63.930870 
	C414.604706,64.347580 415.416382,64.587990 416.537384,64.949768 
	C416.222595,66.531372 415.550171,68.073547 414.239990,69.826843 
	C412.192383,69.596603 410.783508,69.152237 409.372559,68.714462 
	C405.189697,67.416656 401.306793,67.459305 397.801697,70.661194 
	C389.819305,77.953079 392.095062,89.394096 402.716797,94.972359 
z"/>
<path fill="#EFF0F0" opacity="1.000000" stroke="none" 
	d="
M300.283447,175.631897 
	C301.221680,177.488342 302.159943,179.344803 303.169159,181.543518 
	C301.503113,182.415482 299.774994,182.976639 298.027588,183.469452 
	C289.999969,185.733536 282.363495,182.672226 276.497437,174.860382 
	C271.290802,167.926712 269.896820,158.077240 274.115540,152.116684 
	C276.729370,148.423615 280.562256,145.593323 284.014038,142.054672 
	C285.335358,143.942688 286.490540,146.151764 287.343597,148.688263 
	C281.220520,150.185181 277.128754,155.599564 278.098724,161.753265 
	C279.183380,168.634583 282.672333,174.218430 289.309113,177.063980 
	C293.054596,178.669891 297.021881,179.112717 300.283447,175.631897 
z"/>
<path fill="#EFF0F1" opacity="1.000000" stroke="none" 
	d="
M237.633240,225.131714 
	C235.890915,224.086411 234.534958,222.861069 233.344696,221.126556 
	C233.994080,219.077133 235.039703,217.471100 234.868393,216.007523 
	C233.905991,207.785599 229.352249,201.906250 221.895401,198.617584 
	C218.664185,197.192535 214.988449,197.062210 212.917450,201.149063 
	C210.985535,199.327560 209.053604,197.506058 206.976562,195.384766 
	C207.978043,194.968979 209.211487,195.087997 210.257935,194.701157 
	C222.760712,190.079483 229.866577,192.412216 237.413406,203.713333 
	C242.077927,210.698242 242.299423,218.457947 237.633240,225.131714 
z"/>
<path fill="#EAEDF0" opacity="1.000000" stroke="none" 
	d="
M207.023468,227.855865 
	C216.006714,227.463806 225.080841,227.365814 234.611893,227.403839 
	C229.241333,235.229828 216.894379,236.567917 209.773193,230.293579 
	C208.919830,229.541672 208.002197,228.862686 207.023468,227.855865 
z"/>
<path fill="#F0F1F1" opacity="1.000000" stroke="none" 
	d="
M451.871979,44.720196 
	C449.633514,45.076752 447.262146,45.115280 444.450623,45.093113 
	C442.665771,43.162739 440.828033,41.456619 440.135986,39.370434 
	C439.604309,37.767620 440.515686,35.686104 440.785309,33.817467 
	C442.409637,34.346626 444.585358,34.394978 445.549133,35.500168 
	C447.910309,38.207764 449.712158,41.403091 451.871979,44.720196 
z"/>
<path fill="#E9ECEF" opacity="1.000000" stroke="none" 
	d="
M370.227722,133.928391 
	C372.703156,127.728142 375.533875,121.515106 378.624817,115.070488 
	C381.511230,122.082359 378.485229,129.035660 370.227722,133.928391 
z"/>
<path fill="#F0F0EC" opacity="1.000000" stroke="none" 
	d="
M395.485321,108.997101 
	C394.467316,112.200294 393.019745,115.407379 391.314514,118.839386 
	C390.893494,118.779297 390.670532,118.512642 390.576202,118.206352 
	C389.807404,115.709282 389.062622,113.204796 388.310547,110.702576 
	C390.558960,110.135376 392.807373,109.568184 395.485321,108.997101 
z"/>
<path fill="#F0EFEB" opacity="1.000000" stroke="none" 
	d="
M423.993256,49.114586 
	C423.118805,51.991737 421.868561,54.794098 420.356079,57.813816 
	C419.579071,57.424988 418.918365,56.890369 418.578918,56.198204 
	C417.795990,54.601791 416.133270,52.197567 416.677216,51.427162 
	C418.177338,49.302635 420.459290,47.315533 423.993256,49.114586 
z"/>
<path fill="#E6EAEE" opacity="1.000000" stroke="none" 
	d="
M331.789581,120.038330 
	C331.223938,122.632355 330.275421,125.172676 328.871002,128.933884 
	C326.891357,124.727348 325.477234,121.722504 324.033813,118.358337 
	C326.471893,118.660881 328.939301,119.322746 331.789581,120.038330 
z"/>
<path fill="#FCFDFD" opacity="1.000000" stroke="none" 
	d="
M27.991261,10.006024 
	C21.881163,14.279410 16.092289,18.393087 10.303413,22.506763 
	C9.806114,22.011683 9.308815,21.516600 8.811516,21.021519 
	C9.805504,19.609184 10.524400,17.823862 11.842850,16.851452 
	C16.616493,13.330694 21.546238,10.012985 26.528316,6.790643 
	C27.534143,6.140088 29.025850,6.240761 30.293549,5.995090 
	C29.633192,7.278831 28.972837,8.562573 27.991261,10.006024 
z"/>
<path fill="#FCFDFD" opacity="1.000000" stroke="none" 
	d="
M23.612516,19.650696 
	C26.832586,17.272366 29.700983,15.019229 32.705635,12.965422 
	C33.285793,12.568859 34.399139,12.952332 35.266525,12.975971 
	C35.130291,13.849752 35.314095,15.163247 34.809299,15.530649 
	C28.345602,20.235126 21.783392,24.804262 14.714880,28.739861 
	C15.232763,23.304800 20.260780,22.570358 23.612516,19.650696 
z"/>
<path fill="#FCFDFE" opacity="1.000000" stroke="none" 
	d="
M213.070572,201.440674 
	C214.988449,197.062210 218.664185,197.192535 221.895401,198.617584 
	C229.352249,201.906250 233.905991,207.785599 234.868393,216.007523 
	C235.039703,217.471100 233.994080,219.077133 233.205292,220.838821 
	C226.341370,214.617615 219.782532,208.174957 213.070572,201.440674 
z"/>
<path fill="#FCFEFE" opacity="1.000000" stroke="none" 
	d="
M300.212158,175.285828 
	C297.021881,179.112717 293.054596,178.669891 289.309113,177.063980 
	C282.672333,174.218430 279.183380,168.634583 278.098724,161.753265 
	C277.128754,155.599564 281.220520,150.185181 287.408539,149.019806 
	C291.897400,157.662537 296.019165,166.301163 300.212158,175.285828 
z"/>
<path fill="#FEFEFD" opacity="1.000000" stroke="none" 
	d="
M402.909241,94.661613 
	C392.095062,89.394096 389.819305,77.953079 397.801697,70.661194 
	C401.306793,67.459305 405.189697,67.416656 409.372559,68.714462 
	C410.783508,69.152237 412.192383,69.596603 414.039856,70.070274 
	C410.685547,78.185341 406.893646,86.268105 402.909241,94.661613 
z"/>
</svg>